<svg xmlns="http://www.w3.org/2000/svg" viewBox="0 0 64 64" role="img" aria-label="nacelle streamlined equipment housing">
  <title>nacelle</title>
  <rect width="64" height="64" rx="14" fill="#0f172a"/>
  <path d="M10 35c4-13 19-21 38-21 6 0 10 4 9 9-2 12-22 22-45 15-2-1-3-2-2-3Z" fill="#2dd4bf"/>
  <path d="M10 35c12 6 31 5 46-9-3 12-23 23-43 14-3-1-4-3-3-5Z" fill="#f59e0b"/>
  <path d="M26 26c7-4 16-6 27-7-7 3-16 7-26 13Z" fill="#ccfbf1"/>
  <ellipse cx="18" cy="34" rx="9" ry="7" fill="#0f172a"/>
  <ellipse cx="18" cy="34" rx="5" ry="4" fill="#e5e7eb"/>
  <path d="M17 42c2 5 6 8 12 10H17c-5-1-8-4-8-9 3 0 6 0 8-1Z" fill="#334155"/>
  <path d="M31 37c8-2 16-6 23-12-4 8-12 13-23 16Z" fill="#0f766e"/>
</svg>
