<svg xmlns="http://www.w3.org/2000/svg" viewBox="0 0 64 64" role="img" aria-labelledby="title desc">
  <title id="title">nacelle mark</title>
  <desc id="desc">A refined nacelle logo mark: a streamlined TCP service housing with socket inlet and packet-stream lanes.</desc>
  <defs>
    <linearGradient id="body" x1="8" y1="20" x2="58" y2="42" gradientUnits="userSpaceOnUse">
      <stop offset="0" stop-color="#5eead4"/>
      <stop offset="0.58" stop-color="#2dd4bf"/>
      <stop offset="1" stop-color="#14b8a6"/>
    </linearGradient>
    <linearGradient id="keel" x1="13" y1="37" x2="55" y2="47" gradientUnits="userSpaceOnUse">
      <stop offset="0" stop-color="#fbbf24"/>
      <stop offset="1" stop-color="#f59e0b"/>
    </linearGradient>
    <filter id="shadow" x="-20%" y="-20%" width="140%" height="140%">
      <feDropShadow dx="0" dy="2" stdDeviation="2" flood-color="#020617" flood-opacity="0.3"/>
    </filter>
  </defs>

  <rect width="64" height="64" rx="14" fill="#0f172a"/>
  <path d="M8 36c1.9-7.8 8.4-14.2 17.5-17.7C33.2 15.3 42.1 14 51.8 14c4.7 0 7.8 3.5 7.1 7.9C57 34.1 41.2 43.7 22.8 42.5 15.7 42 10.5 39.6 8 36Z" fill="url(#body)" filter="url(#shadow)"/>
  <path d="M9.1 36.3c8.4 4.2 23.3 4.8 39-2.4 4.1-1.9 7.6-4.3 10.3-7.2-3.9 10.1-18 17.5-34.1 17.1-8.2-.2-13.7-2.9-15.2-7.5Z" fill="url(#keel)"/>
  <path d="M24.6 23.6c6.9-3.1 15.2-4.7 25.1-4.9 2.1 0 3.7.3 4.8 1-9.2 1.3-19.1 4.9-29.9 10.8Z" fill="#ccfbf1" opacity="0.93"/>

  <ellipse cx="18" cy="34.3" rx="9.7" ry="7.5" fill="#0f172a"/>
  <ellipse cx="18" cy="34.3" rx="5.3" ry="4.1" fill="#e2e8f0"/>
  <ellipse cx="18" cy="34.3" rx="2.3" ry="1.8" fill="#0f172a" opacity="0.9"/>

  <path d="M31.2 30.4h18.1" stroke="#0f172a" stroke-width="2.6" stroke-linecap="round" opacity="0.35"/>
  <path d="M34.8 35h12.6" stroke="#0f172a" stroke-width="2.6" stroke-linecap="round" opacity="0.35"/>
  <circle cx="51.7" cy="30.4" r="1.9" fill="#0f172a" opacity="0.35"/>
  <circle cx="49.7" cy="35" r="1.9" fill="#0f172a" opacity="0.35"/>

  <path d="M17.2 43.6c2.2 4.5 6.1 7.1 11.6 7.9H17.7c-5.6-.5-8.8-3.5-9.4-8.9 3.2.6 6.2.9 8.9 1Z" fill="#334155"/>
</svg>
